#!OML:ASF H:\Pregnant\Project 1\Capture day 1\Session 1\femalepreg.ASF
:FULLY-SPECIFIED
:DEGREES
858
root 1.11974 5.6744 23.6953 46.0528 -53.3536 -23.8308
lowerback 35.2377 6.71418 -10.7737
upperback 3.59147 3.72785 -1.47109
thorax -14.1221 1.97895 2.46299
lowerneck -32.2058 -4.08198 -1.94499
upperneck 18.9466 -10.1117 18.132
head 12.9609 -2.24666 5.33124
rclavicle 5.88403e-014 -7.4743e-014
rhumerus 16.3246 13.3431 -76.0119
rradius 37.4827
rwrist 9.777
rhand -39.6225 -8.8141
rfingers 7.12502
rthumb -12.6039 -38.4139
lclavicle 5.88403e-014 -7.4743e-014
lhumerus -6.85743 18.9994 64.9324
lradius 24.6137
lwrist 44.8791
lhand -65.7992 -1.82628
lfingers 7.12502
lthumb -37.6533 24.0665
rfemur -82.0133 6.88536 3.51467
rtibia 145.406
rfoot 28.7425 23.029
rtoes -1.05416
lfemur -100.546 -6.17503 -49.3405
ltibia 140.752
lfoot 36.2673 15.5016
ltoes 36.5942
859
root 1.06131 5.7166 23.6912 46.1259 -53.4599 -23.4398
lowerback 35.2325 6.65433 -10.8905
upperback 3.54829 3.57827 -1.64626
thorax -14.1435 1.91875 2.39543
lowerneck -32.2406 -4.00732 -1.84691
upperneck 18.879 -10.0681 18.2134
head 12.9389 -2.21295 5.354
rclavicle 2.38542e-014 -3.18055e-014
rhumerus 16.0033 13.6125 -76.3122
rradius 38.095
rwrist 9.52569
rhand -39.7904 -9.13872
rfingers 7.12502
rthumb -12.7657 -38.7285
lclavicle 2.38542e-014 -3.18055e-014
lhumerus -6.50992 20.2411 64.523
lradius 23.6551
lwrist 43.2898
lhand -65.1863 2.94454
lfingers 7.12502
lthumb -37.0739 28.9899
rfemur -81.9882 7.17029 3.68577
rtibia 145.178
rfoot 28.607 22.8764
rtoes -1.25325
lfemur -100.389 -5.7007 -49.2906
ltibia 140.65
lfoot 37.0027 14.644
ltoes 34.0881
860
root 1.00254 5.75921 23.6883 46.1865 -53.5597 -23.0754
lowerback 35.2629 6.58559 -10.9614
upperback 3.50777 3.42817 -1.82697
thorax -14.1745 1.85571 2.29698
lowerneck -32.2774 -3.9237 -1.72924
upperneck 18.812 -10.0171 18.2808
head 12.9145 -2.17609 5.36936
rclavicle 1.27222e-014 3.49861e-014
rhumerus 15.6624 13.9212 -76.6041
rradius 38.7274
rwrist 9.32076
rhand -39.9735 -9.54641
rfingers 7.12502
rthumb -12.9422 -39.125
lclavicle 1.27222e-014 3.49861e-014
lhumerus -6.10552 21.7263 64.1086
lradius 22.5732
lwrist 41.3544
lhand -64.5059 6.58873
lfingers 7.12502
lthumb -36.4301 32.7984
rfemur -81.9121 7.51453 3.8723
rtibia 144.921
rfoot 28.4843 22.7066
rtoes -1.42959
lfemur -100.177 -5.19409 -49.2384
ltibia 140.537
lfoot 37.8302 13.6276
ltoes 31.1889
861
root 0.943442 5.80267 23.687 46.221 -53.6532 -22.7438
lowerback 35.3501 6.51422 -10.9904
upperback 3.47289 3.28114 -2.0085
thorax -14.2209 1.79144 2.1724
lowerneck -32.3184 -3.8306 -1.59144
upperneck 18.7459 -9.95696 18.3303
head 12.8874 -2.1357 5.37595
rclavicle -3.18055e-014 6.04305e-014
rhumerus 15.311 14.2512 -76.8967
rradius 39.373
rwrist 9.16382
rhand -40.1552 -10.0371
rfingers 7.12502
rthumb -13.1173 -39.6046
lclavicle -3.18055e-014 6.04305e-014
lhumerus -5.64241 23.5072 63.6963
lradius 21.3713
lwrist 39.007
lhand -63.7739 9.4519
lfingers 7.12502
lthumb -35.7367 35.8327
rfemur -81.7557 7.93007 4.0808
rtibia 144.629
rfoot 28.3696 22.51
rtoes -1.58625
lfemur -99.8854 -4.61001 -49.1704
ltibia 140.408
lfoot 38.7726 12.4387
ltoes 27.8939
862
root 0.884009 5.84718 23.6877 46.2248 -53.7418 -22.4502
lowerback 35.5032 6.44493 -10.9833
upperback 3.44528 3.13983 -2.18765
thorax -14.2851 1.72733 2.0267
lowerneck -32.3652 -3.72829 -1.43527
upperneck 18.6796 -9.88714 18.3613
head 12.8576 -2.09164 5.37408
rclavicle 2.38542e-014 -3.33958e-014
rhumerus 14.9641 14.5801 -77.2057
rradius 40.0153
rwrist 9.06095
rhand -40.3234 -10.5922
rfingers 7.12502
rthumb -13.2795 -40.1491
lclavicle 2.38542e-014 -3.33958e-014
lhumerus -5.12349 25.6286 63.2945
lradius 20.0655
lwrist 36.1912
lhand -63.0104 11.7931
lfingers 7.12502
lthumb -35.0128 38.3462
rfemur -81.5049 8.41927 4.31371
rtibia 144.297
rfoot 28.2582 22.284
rtoes -1.73032
lfemur -99.5047 -3.91253 -49.0676
ltibia 140.258
lfoot 39.8348 11.1038
ltoes 24.294
863
root 0.824282 5.89277 23.6905 46.2021 -53.8273 -22.1958
lowerback 35.7177 6.37959 -10.9468
upperback 3.42517 3.00501 -2.36381
thorax -14.3654 1.66403 1.86391
lowerneck -32.4173 -3.61739 -1.26331
upperneck 18.6099 -9.80772 18.3772
head 12.8241 -2.04401 5.3653
rclavicle -3.81667e-014 2.38542e-014
rhumerus 14.6314 14.8889 -77.5428
rradius 40.6426
rwrist 9.01437
rhand -40.473 -11.1779
rfingers 7.12502
rthumb -13.4237 -40.7254
lclavicle -3.81667e-014 2.38542e-014
lhumerus -4.5572 28.1147 62.911
lradius 18.689
lwrist 32.8808
lhand -62.2335 13.8338
lfingers 7.12502
lthumb -34.2755 40.556
rfemur -81.1641 8.96559 4.56722
rtibia 143.928
rfoot 28.1506 22.0361
rtoes -1.85955
lfemur -99.0406 -3.08596 -48.9098
ltibia 140.086
lfoot 40.9867 9.70774
ltoes 20.6321
864
root 0.764352 5.93916 23.6953 46.1689 -53.9105 -21.978
lowerback 35.9726 6.31672 -10.8859
upperback 3.41045 2.87627 -2.53812
thorax -14.456 1.60177 1.68658
lowerneck -32.4716 -3.50022 -1.08036
upperneck 18.5318 -9.72079 18.3846
head 12.7857 -1.99377 5.35243
rclavicle 3.97569e-014 3.18055e-014
rhumerus 14.3127 15.1644 -77.9107
rradius 41.2539
rwrist 9.02139
rhand -40.6022 -11.7497
rfingers 7.12502
rthumb -13.5483 -41.2889
lclavicle 3.97569e-014 3.18055e-014
lhumerus -3.95825 30.9514 62.555
lradius 17.2929
lwrist 29.1024
lhand -61.459 15.7069
lfingers 7.12502
lthumb -33.5397 42.5917
rfemur -80.7601 9.53645 4.83273
rtibia 143.529
rfoot 28.0497 21.7836
rtoes -1.97396
lfemur -98.5189 -2.14648 -48.6795
ltibia 139.892
lfoot 42.1722 8.38585
ltoes 17.2783
865
root 0.70437 5.98593 23.7018 46.1496 -53.9907 -21.7908
lowerback 36.2352 6.25165 -10.8032
upperback 3.39733 2.75169 -2.71423
thorax -14.5486 1.54008 1.49443
lowerneck -32.5231 -3.37874 -0.889267
upperneck 18.4392 -9.62845 18.3903
head 12.74 -1.94194 5.3378
rclavicle -1.11319e-014 4.92986e-014
rhumerus 14.0024 15.3944 -78.3111
rradius 41.8515
rwrist 9.08353
rhand -40.7141 -12.2711
rfingers 7.12502
rthumb -13.6561 -41.8031
lclavicle -1.11319e-014 4.92986e-014
lhumerus -3.34746 34.0685 62.2335
lradius 15.9446
lwrist 24.9601
lhand -60.6946 17.4836
lfingers 7.12502
lthumb -32.8128 44.5231
rfemur -80.3357 10.0884 5.09715
rtibia 143.112
rfoot 27.9599 21.5498
rtoes -2.07585
lfemur -97.9823 -1.13959 -48.3671
ltibia 139.684
lfoot 43.3452 7.22874
ltoes 14.4605
866
root 0.644507 6.03258 23.7094 46.1661 -54.0663 -21.6267
lowerback 36.4741 6.18 -10.7015
upperback 3.38146 2.62979 -2.89404
thorax -14.6363 1.47875 1.28864
lowerneck -32.566 -3.25506 -0.691929
upperneck 18.3276 -9.53273 18.3977
head 12.685 -1.88972 5.32244
rclavicle -7.95139e-015 1.43125e-014
rhumerus 13.6903 15.5713 -78.7403
rradius 42.4408
rwrist 9.20285
rhand -40.8117 -12.7223
rfingers 7.12502
rthumb -13.7501 -42.2479
lclavicle -7.95139e-015 1.43125e-014
lhumerus -2.75259 37.3203 61.9518
lradius 14.7206
lwrist 20.657
lhand -59.944 19.1542
lfingers 7.12502
lthumb -32.0986 46.3403
rfemur -79.932 10.5905 5.34865
rtibia 142.69
rfoot 27.8816 21.3523
rtoes -2.17198
lfemur -97.474 -0.122038 -47.974
ltibia 139.477
lfoot 44.4608 6.28342
ltoes 12.2716
867
root 0.584962 6.07864 23.7178 46.2387 -54.1352 -21.4778
lowerback 36.6597 6.09778 -10.5843
upperback 3.35898 2.50914 -3.07792
thorax -14.7128 1.41762 1.07235
lowerneck -32.5951 -3.1299 -0.488571
upperneck 18.1944 -9.43349 18.4066
head 12.6187 -1.8376 5.30606
rclavicle -5.725e-014 3.33958e-014
rhumerus 13.3661 15.6934 -79.1903
rradius 43.0291
rwrist 9.37947
rhand -40.8963 -13.0995
rfingers 7.12502
rthumb -13.8317 -42.6196
lclavicle -5.725e-014 3.33958e-014
lhumerus -2.20783 40.4651 61.7069
lradius 13.6961
lwrist 16.5061
lhand -59.2166 20.6431
lfingers 7.12502
lthumb -31.4057 47.9664
rfemur -79.5872 11.0196 5.57655
rtibia 142.272
rfoot 27.8137 21.2034
rtoes -2.27139
lfemur -97.0361 0.851034 -47.5084
ltibia 139.286
lfoot 45.4934 5.54448
ltoes 10.6352
868
root 0.525892 6.12368 23.7266 46.3753 -54.1959 -21.3373
lowerback 36.7767 6.00366 -10.4561
upperback 3.32793 2.38909 -3.2637
thorax -14.7749 1.35685 0.851066
lowerneck -32.609 -3.00426 -0.279083
upperneck 18.0416 -9.33123 18.4133
head 12.5414 -1.78623 5.28708
rclavicle 1.90833e-014 7.63333e-014
rhumerus 13.0256 15.7607 -79.6543
rradius 43.6164
rwrist 9.61599
rhand -40.971 -13.4109
rfingers 7.12502
rthumb -13.9037 -42.9261
lclavicle 1.90833e-014 7.63333e-014
lhumerus -1.75335 43.1766 61.4837
lradius 12.9332
lwrist 12.9053
lhand -58.5253 21.8822
lfingers 7.12502
lthumb -30.7468 49.3316
rfemur -79.3205 11.3807 5.77648
rtibia 141.867
rfoot 27.7505 21.1006
rtoes -2.38225
lfemur -96.6934 1.74548 -46.9832
ltibia 139.125
lfoot 46.4403 4.97429
ltoes 9.38972
